<?xml version="1.0" encoding="UTF-8"?>
<svg xmlns="http://www.w3.org/2000/svg" viewBox="0 0 960 600" role="img" aria-label="Map of the United States">
  <g id="continental">
    <path id="state-AL" class="state" data-state="AL" data-name="Alabama" d="M616.6,342.2 L645.4,342.5 L648.2,362.7 L652.3,392.4 L654.1,398.9 L655.9,402.6 L655.2,404.9 L657.1,406.3 L654.3,409.3 L654.4,412.2 L653.0,416.2 L654.6,423.3 L653.4,429.4 L655.2,435.9 L647.1,436.0 L612.7,436.0 L612.2,439.1 L615.8,443.6 L615.2,447.4 L616.5,449.3 L614.0,452.8 L611.8,453.6 L607.7,449.7 L607.2,444.0 L606.0,443.3 L604.4,447.7 L603.9,451.9 L599.7,450.8 L598.4,414.9 L602.2,370.4 L604.5,344.7 L602.8,342.3 L616.6,342.2 Z"/>
    <path id="state-AR" class="state" data-state="AR" data-name="Arkansas" d="M500.1,307.0 L570.9,307.1 L572.3,311.6 L569.8,314.4 L567.2,318.8 L577.8,318.8 L577.3,323.2 L574.8,324.4 L574.3,328.0 L571.2,331.9 L571.5,337.5 L569.9,341.6 L568.3,342.3 L569.3,344.3 L566.7,346.1 L565.5,350.1 L563.8,351.1 L564.1,355.8 L561.1,357.1 L561.2,358.6 L557.8,362.4 L558.8,365.0 L555.8,368.7 L553.2,375.9 L556.1,379.0 L554.6,380.9 L555.5,385.8 L554.3,389.0 L514.3,388.6 L507.2,388.6 L507.2,376.2 L504.8,375.1 L501.6,376.3 L499.9,374.1 L500.8,332.9 L497.8,307.0 L500.1,307.0 Z"/>
    <path id="state-AZ" class="state" data-state="AZ" data-name="Arizona" d="M261.4,295.3 L261.3,428.2 L228.1,428.2 L208.9,419.4 L166.8,401.0 L168.4,395.7 L171.6,394.8 L172.5,392.7 L171.6,388.4 L169.4,388.2 L168.3,379.5 L171.6,376.2 L172.1,372.7 L171.4,367.2 L173.4,363.1 L176.0,361.5 L178.0,358.5 L174.7,355.1 L172.5,349.0 L169.8,345.1 L169.8,342.2 L170.8,339.0 L170.4,334.6 L169.1,330.1 L168.1,316.4 L174.1,315.5 L176.1,318.3 L177.7,318.2 L179.4,314.2 L179.4,295.3 L237.6,295.2 L261.4,295.3 Z"/>
    <path id="state-CA" class="state" data-state="CA" data-name="California" d="M28.9,178.0 L42.9,177.9 L64.9,178.2 L81.9,178.2 L82.0,218.8 L81.9,248.5 L103.0,269.5 L122.9,290.2 L138.6,307.0 L149.9,319.4 L169.8,342.2 L169.8,345.1 L172.5,349.0 L174.7,355.1 L178.0,358.5 L176.0,361.5 L173.4,363.1 L171.4,367.2 L172.1,372.7 L171.6,376.2 L168.3,379.5 L169.4,388.2 L171.6,388.4 L172.5,392.7 L171.6,394.8 L168.4,395.7 L146.7,397.9 L129.0,399.9 L127.0,396.8 L126.9,392.0 L125.7,386.2 L123.3,382.1 L118.2,376.4 L111.7,371.2 L110.4,372.6 L107.9,371.7 L108.3,369.4 L105.4,364.6 L101.5,365.7 L94.7,362.2 L93.7,359.4 L89.1,355.9 L83.9,356.0 L79.6,354.5 L74.2,355.1 L71.3,352.0 L71.9,345.5 L70.9,344.5 L71.6,339.8 L67.3,336.4 L67.1,331.6 L65.5,331.4 L62.8,327.3 L60.9,326.4 L60.1,323.8 L53.8,314.2 L50.8,311.4 L50.2,303.8 L51.5,304.4 L52.6,299.9 L50.3,295.8 L47.4,296.3 L43.7,292.6 L42.3,289.7 L42.6,286.8 L40.7,283.1 L40.7,277.0 L43.7,277.0 L42.5,268.3 L41.1,269.2 L40.9,273.5 L37.6,274.4 L33.8,271.2 L33.2,265.7 L30.6,261.3 L27.3,258.6 L25.5,255.5 L20.7,249.5 L21.5,247.7 L19.3,239.9 L20.2,235.5 L18.8,228.9 L14.6,222.5 L10.5,218.9 L9.7,214.7 L13.8,204.4 L14.6,201.0 L13.8,198.3 L15.3,191.2 L14.0,184.8 L12.2,183.2 L12.9,178.1 L28.9,178.0 Z"/>
    <path id="state-CO" class="state" data-state="CO" data-name="Colorado" d="M279.8,201.5 L315.7,201.6 L343.2,201.5 L375.9,201.5 L375.9,225.0 L376.1,295.4 L360.4,295.3 L338.5,295.4 L297.0,295.4 L288.0,295.3 L261.4,295.3 L261.4,268.0 L261.2,265.4 L261.2,245.5 L261.3,201.6 L279.8,201.5 Z"/>
    <path id="state-CT" class="state" data-state="CT" data-name="Connecticut" d="M851.0,177.2 L871.5,177.6 L871.5,178.0 L871.5,191.8 L870.6,194.0 L869.1,193.6 L861.9,195.4 L853.4,194.9 L849.7,198.1 L845.8,199.2 L841.1,201.9 L840.0,199.2 L844.0,196.6 L842.8,194.7 L843.9,177.0 L851.0,177.2 Z"/>
    <path id="state-DC" class="state" data-state="DC" data-name="District of Columbia" d="M785.8,248.6 L787.8,250.9 L785.7,253.3 L784.4,250.0 L785.8,248.6 Z"/>
    <path id="state-DE" class="state" data-state="DE" data-name="Delaware" d="M812.3,229.6 L810.8,232.4 L809.1,233.9 L809.5,237.7 L811.9,241.1 L812.5,246.9 L816.0,252.9 L817.6,253.2 L818.3,261.3 L807.8,261.0 L806.2,231.5 L809.0,228.9 L812.3,229.6 Z"/>
    <path id="state-FL" class="state" data-state="FL" data-name="Florida" d="M647.1,436.0 L655.2,435.9 L657.5,442.7 L679.9,444.2 L700.9,446.0 L701.7,451.0 L703.7,450.9 L704.4,446.1 L703.8,441.8 L705.3,440.0 L709.1,441.9 L713.5,442.8 L714.5,452.9 L716.6,464.4 L721.3,479.4 L728.6,495.4 L727.5,496.6 L727.9,504.0 L730.9,512.4 L735.7,529.2 L736.7,534.5 L736.6,539.8 L734.8,559.2 L733.3,559.6 L731.7,565.6 L732.2,567.6 L729.1,571.9 L727.8,570.9 L724.8,572.7 L719.6,573.7 L718.0,571.3 L718.7,567.7 L715.1,557.3 L712.2,555.4 L709.7,556.8 L707.7,551.0 L707.2,546.3 L703.8,541.0 L703.0,537.5 L703.5,532.5 L701.6,531.6 L702.1,534.6 L700.4,535.4 L695.1,522.6 L693.1,519.4 L698.0,510.1 L694.8,510.6 L692.6,513.5 L690.5,508.9 L693.4,496.1 L693.9,485.4 L691.9,482.8 L691.3,479.4 L688.2,478.6 L684.5,473.0 L681.5,470.7 L681.3,467.2 L679.3,465.9 L677.6,462.1 L671.3,456.9 L665.8,458.1 L666.1,461.7 L664.3,461.0 L657.5,465.4 L650.2,466.4 L650.4,463.9 L648.7,460.8 L640.1,453.8 L634.0,450.9 L628.6,450.1 L624.0,450.6 L614.0,452.8 L616.5,449.3 L615.2,447.4 L615.8,443.6 L612.2,439.1 L612.7,436.0 L647.1,436.0 Z"/>
    <path id="state-GA" class="state" data-state="GA" data-name="Georgia" d="M686.3,342.2 L682.8,347.2 L682.5,349.6 L688.0,354.6 L689.7,354.2 L692.2,359.4 L692.7,362.1 L695.3,366.9 L699.1,369.9 L701.2,374.3 L705.6,378.2 L705.5,380.9 L708.3,385.3 L712.7,388.9 L713.8,392.7 L714.0,397.7 L716.2,399.4 L718.8,405.7 L718.9,409.7 L722.7,411.7 L718.7,419.7 L717.9,423.8 L716.2,427.4 L716.1,431.1 L714.3,432.8 L713.5,442.8 L709.1,441.9 L705.3,440.0 L703.8,441.8 L704.4,446.1 L703.7,450.9 L701.7,451.0 L700.9,446.0 L679.9,444.2 L657.5,442.7 L655.2,435.9 L653.4,429.4 L654.6,423.3 L653.0,416.2 L654.4,412.2 L654.3,409.3 L657.1,406.3 L655.2,404.9 L655.9,402.6 L654.1,398.9 L652.3,392.4 L648.2,362.7 L645.4,342.5 L666.4,342.4 L677.9,342.5 L686.3,342.2 Z"/>
    <path id="state-IA" class="state" data-state="IA" data-name="Iowa" d="M551.0,142.9 L553.5,142.9 L553.7,146.4 L556.1,148.7 L554.1,151.5 L554.6,156.8 L555.9,160.5 L561.7,163.2 L562.9,166.2 L566.5,170.4 L566.9,172.8 L570.6,175.2 L571.1,178.1 L570.4,182.6 L568.3,184.1 L567.7,187.7 L562.6,190.7 L556.3,191.8 L555.2,196.0 L557.9,199.3 L557.6,203.4 L555.4,205.7 L555.0,209.3 L550.4,211.9 L550.2,216.1 L548.4,215.3 L545.0,210.6 L543.3,210.7 L520.0,211.4 L497.5,211.6 L478.9,211.2 L477.0,208.1 L477.9,202.1 L476.3,196.8 L476.4,190.9 L473.5,188.9 L473.1,185.7 L474.1,182.9 L473.0,178.8 L470.7,177.2 L467.8,166.7 L464.7,161.5 L466.2,158.1 L466.7,153.5 L468.0,151.8 L465.9,149.5 L466.4,145.4 L465.5,143.4 L467.7,142.9 L551.0,142.9 Z"/>
    <path id="state-ID" class="state" data-state="ID" data-name="Idaho" d="M146.7,14.1 L146.7,38.1 L152.0,44.6 L152.0,51.0 L155.2,53.9 L158.5,54.9 L158.9,56.5 L165.0,62.8 L165.7,65.4 L170.0,67.8 L170.2,69.4 L174.9,69.3 L172.6,78.0 L172.1,83.5 L173.8,87.1 L170.9,89.7 L172.1,92.1 L171.2,94.7 L174.7,97.1 L178.8,93.9 L180.4,91.3 L183.4,93.6 L182.9,95.6 L184.5,100.1 L187.2,104.8 L189.2,106.5 L189.1,111.0 L191.0,112.9 L194.4,113.2 L196.5,120.7 L198.4,122.0 L200.1,119.8 L205.3,120.0 L209.0,117.9 L211.3,119.1 L215.1,118.0 L215.9,119.3 L219.2,118.4 L223.0,113.5 L225.6,117.6 L228.6,120.1 L228.6,178.1 L210.3,178.2 L179.5,178.2 L130.6,178.1 L130.6,135.2 L132.8,127.5 L131.4,125.6 L128.3,125.2 L127.1,122.0 L130.4,113.7 L132.1,112.9 L133.8,109.4 L133.6,107.3 L135.4,104.4 L136.4,100.3 L139.8,93.4 L138.5,90.2 L134.6,88.5 L132.4,84.5 L132.3,80.4 L130.2,76.3 L130.4,74.4 L130.3,43.1 L130.5,14.1 L146.7,14.1 Z"/>
    <path id="state-IL" class="state" data-state="IL" data-name="Illinois" d="M562.9,166.2 L593.2,166.6 L609.4,166.6 L608.8,171.0 L611.3,176.3 L613.9,184.9 L613.9,240.2 L612.1,244.5 L614.1,249.5 L614.4,253.6 L612.3,256.9 L611.8,260.0 L608.8,265.0 L606.9,265.4 L607.4,268.3 L606.1,269.5 L605.2,275.0 L605.7,276.6 L603.5,279.9 L605.1,284.0 L598.3,286.2 L597.7,288.6 L599.2,291.7 L597.2,293.6 L591.2,290.0 L589.3,290.3 L586.8,294.4 L587.6,295.7 L585.0,295.4 L581.3,288.8 L582.6,287.2 L581.3,282.7 L581.3,279.1 L576.0,274.1 L574.2,274.6 L572.4,271.6 L567.6,266.8 L567.6,263.1 L570.4,257.1 L570.0,254.9 L571.6,252.0 L569.3,250.4 L565.7,249.4 L563.8,251.5 L562.5,250.1 L561.5,242.4 L556.0,237.4 L551.0,231.4 L548.9,224.2 L548.7,219.4 L550.2,216.1 L550.4,211.9 L555.0,209.3 L555.4,205.7 L557.6,203.4 L557.9,199.3 L555.2,196.0 L556.3,191.8 L562.6,190.7 L567.7,187.7 L568.3,184.1 L570.4,182.6 L571.1,178.1 L570.6,175.2 L566.9,172.8 L566.5,170.4 L562.9,166.2 Z"/>
    <path id="state-IN" class="state" data-state="IN" data-name="Indiana" d="M639.1,183.8 L658.5,183.8 L658.5,185.3 L658.5,213.3 L658.3,246.0 L657.0,247.0 L658.4,253.5 L655.5,253.6 L652.4,255.8 L648.2,254.7 L648.4,259.4 L645.6,261.3 L644.5,264.2 L641.7,265.4 L640.1,271.3 L638.3,272.8 L634.6,270.7 L634.0,268.0 L630.4,270.9 L630.6,273.5 L627.0,274.4 L625.9,272.1 L621.8,274.4 L620.4,276.8 L616.3,273.4 L614.1,274.1 L612.7,272.5 L611.3,274.1 L607.2,274.4 L605.7,276.6 L605.2,275.0 L606.1,269.5 L607.4,268.3 L606.9,265.4 L608.8,265.0 L611.8,260.0 L612.3,256.9 L614.4,253.6 L614.1,249.5 L612.1,244.5 L613.9,240.2 L613.9,184.9 L615.6,186.5 L620.6,186.5 L625.4,183.8 L639.1,183.8 Z"/>
    <path id="state-KS" class="state" data-state="KS" data-name="Kansas" d="M378.3,225.0 L486.4,225.0 L488.1,227.1 L493.4,228.9 L489.7,235.7 L491.7,238.1 L494.3,243.6 L497.8,244.7 L497.8,295.3 L408.1,295.3 L376.1,295.4 L375.9,225.0 L378.3,225.0 Z"/>
    <path id="state-KY" class="state" data-state="KY" data-name="Kentucky" d="M673.3,253.8 L676.9,257.1 L679.5,255.4 L685.7,257.2 L687.5,254.9 L689.9,254.1 L690.6,258.1 L692.5,258.7 L694.7,261.9 L694.3,269.0 L696.2,273.5 L698.8,277.0 L699.6,279.6 L702.8,282.3 L704.9,282.7 L698.6,289.0 L692.6,292.5 L692.6,294.3 L690.2,295.8 L690.0,297.9 L686.9,298.8 L685.8,301.3 L677.0,304.7 L676.8,305.1 L662.8,304.8 L650.6,304.0 L647.3,304.3 L629.2,303.4 L608.6,303.9 L605.0,302.9 L605.2,307.1 L584.9,306.9 L582.9,307.1 L583.8,304.2 L586.2,305.2 L587.6,295.7 L586.8,294.4 L589.3,290.3 L591.2,290.0 L597.2,293.6 L599.2,291.7 L597.7,288.6 L598.3,286.2 L605.1,284.0 L603.5,279.9 L605.7,276.6 L607.2,274.4 L611.3,274.1 L612.7,272.5 L614.1,274.1 L616.3,273.4 L620.4,276.8 L621.8,274.4 L625.9,272.1 L627.0,274.4 L630.6,273.5 L630.4,270.9 L634.0,268.0 L634.6,270.7 L638.3,272.8 L640.1,271.3 L641.7,265.4 L644.5,264.2 L645.6,261.3 L648.4,259.4 L648.2,254.7 L652.4,255.8 L655.5,253.6 L658.4,253.5 L657.0,247.0 L658.3,246.0 L664.6,246.0 L667.9,250.9 L668.1,252.9 L673.3,253.8 Z"/>
    <path id="state-LA" class="state" data-state="LA" data-name="Louisiana" d="M514.3,388.6 L554.3,389.0 L555.8,391.7 L554.6,392.7 L554.5,397.5 L556.9,400.4 L557.2,407.4 L555.3,412.8 L551.4,416.1 L550.4,421.4 L548.8,420.8 L548.5,429.4 L546.6,429.7 L547.7,434.3 L546.6,436.0 L577.5,436.0 L575.9,443.7 L578.6,448.8 L579.2,452.7 L581.2,455.1 L576.4,458.3 L576.0,460.6 L579.9,462.2 L581.6,458.5 L585.1,462.2 L584.8,465.1 L582.8,466.4 L579.1,465.3 L579.6,467.4 L578.3,470.8 L581.5,473.7 L586.5,474.6 L588.3,478.1 L589.7,478.6 L587.1,482.6 L584.2,481.8 L581.8,477.7 L575.8,475.5 L575.8,471.6 L572.9,472.8 L573.0,476.2 L571.7,479.3 L569.5,479.8 L567.9,476.3 L564.2,476.2 L562.8,479.8 L560.3,480.8 L557.6,478.6 L555.4,478.4 L553.4,472.6 L549.7,470.0 L548.3,470.4 L546.8,465.5 L542.5,466.2 L542.4,463.2 L538.2,466.0 L538.8,468.2 L535.5,470.3 L530.5,469.2 L524.7,466.0 L520.5,464.6 L511.7,465.8 L510.5,466.7 L509.1,464.4 L512.9,456.0 L511.7,451.5 L512.8,449.1 L512.3,445.9 L513.9,443.4 L515.6,437.4 L515.3,432.4 L510.9,422.9 L510.8,417.8 L507.2,412.6 L507.2,388.6 L514.3,388.6 Z"/>
    <path id="state-MA" class="state" data-state="MA" data-name="Massachusetts" d="M886.0,157.3 L887.6,157.7 L888.2,161.8 L887.5,165.1 L884.9,168.2 L884.8,171.8 L888.4,172.3 L890.6,176.1 L890.2,179.0 L892.0,179.8 L892.2,182.5 L896.8,184.8 L902.1,182.6 L900.9,185.8 L893.1,188.6 L890.2,188.8 L888.5,186.6 L885.8,187.2 L885.7,188.9 L882.7,189.9 L881.4,185.7 L881.0,184.9 L879.3,183.2 L878.4,177.7 L875.9,177.7 L871.5,178.0 L871.5,177.6 L851.0,177.2 L843.9,177.0 L843.6,176.1 L847.5,160.7 L860.8,161.0 L879.8,161.8 L881.6,159.6 L886.0,157.3 Z"/>
    <path id="state-MD" class="state" data-state="MD" data-name="Maryland" d="M802.8,273.0 L802.5,273.0 L802.0,273.0 L802.8,273.0 Z M745.8,231.5 L806.2,231.5 L807.8,261.0 L818.3,261.3 L815.1,271.2 L812.6,271.6 L808.1,273.0 L804.6,274.0 L804.7,270.1 L803.4,268.6 L805.2,266.9 L802.7,263.1 L801.9,264.8 L798.5,264.4 L797.3,260.1 L798.4,260.1 L798.5,254.6 L799.6,252.4 L798.2,245.0 L799.9,240.6 L802.7,239.9 L803.2,235.4 L801.1,235.9 L801.0,238.2 L796.7,241.1 L795.5,243.8 L795.2,250.6 L793.6,253.8 L794.3,259.2 L796.4,263.0 L796.2,265.8 L797.5,268.6 L796.8,270.5 L793.0,266.8 L787.7,265.0 L786.0,261.4 L783.0,263.5 L781.8,260.6 L784.2,257.1 L785.7,253.3 L787.8,250.9 L785.8,248.6 L784.4,250.0 L782.3,247.8 L778.9,246.7 L778.9,243.2 L777.1,241.3 L774.6,240.9 L772.7,234.3 L769.9,234.3 L767.1,232.2 L765.6,233.9 L762.9,233.8 L762.3,236.4 L757.4,234.7 L754.2,238.2 L752.0,237.4 L748.8,241.4 L745.6,243.6 L745.8,231.5 Z"/>
    <path id="state-ME" class="state" data-state="ME" data-name="Maine" d="M889.5,153.3 L887.5,151.7 L887.8,149.4 L885.2,146.7 L884.1,115.9 L883.3,100.7 L890.4,97.5 L889.2,95.8 L891.9,92.2 L894.7,90.6 L894.2,89.2 L896.8,87.0 L896.0,82.9 L897.6,76.7 L900.1,74.6 L901.1,68.1 L913.7,50.1 L916.7,50.9 L916.9,55.3 L919.0,56.8 L924.3,54.2 L927.6,54.2 L930.0,52.6 L934.5,56.3 L937.2,59.4 L937.4,85.7 L937.0,92.0 L942.7,93.6 L941.9,96.3 L943.3,98.9 L942.2,101.2 L944.5,104.8 L947.5,104.0 L950.5,112.4 L947.1,116.1 L945.1,114.7 L943.5,117.3 L941.2,116.6 L940.9,118.8 L937.9,118.5 L933.0,123.6 L931.8,120.1 L930.1,119.8 L930.9,123.6 L927.2,125.4 L926.3,122.4 L924.5,123.9 L920.3,123.9 L920.2,120.5 L917.7,121.2 L918.1,123.7 L915.8,128.8 L916.2,130.2 L913.2,133.1 L910.1,132.0 L908.3,135.0 L905.8,135.4 L903.8,137.8 L901.2,137.3 L900.5,134.7 L896.8,138.8 L897.8,141.4 L895.1,142.3 L895.0,144.5 L891.9,147.2 L889.5,153.3 Z"/>
    <path id="state-MI" class="state" data-state="MI" data-name="Michigan" d="M680.6,184.4 L658.5,185.3 L658.5,183.8 L639.1,183.8 L625.4,183.8 L628.8,180.7 L631.0,175.4 L633.1,172.2 L634.6,167.7 L635.5,161.3 L635.1,154.4 L630.3,140.8 L631.8,135.6 L630.7,129.5 L634.5,123.2 L635.3,117.9 L634.8,115.1 L637.5,113.9 L637.8,110.1 L642.0,109.0 L645.3,104.8 L645.0,113.3 L646.7,113.7 L648.9,109.4 L648.9,102.2 L650.3,100.4 L654.8,99.3 L653.3,94.3 L656.3,90.0 L660.0,89.8 L664.1,92.5 L668.1,92.9 L670.1,96.2 L673.2,96.5 L678.3,99.5 L680.1,99.4 L682.9,104.4 L680.6,107.1 L682.8,110.6 L683.6,114.6 L682.6,123.3 L679.3,125.5 L678.5,130.0 L674.5,131.5 L672.4,136.9 L673.2,139.0 L677.1,140.9 L680.2,137.9 L683.8,131.9 L689.4,129.6 L692.2,131.4 L693.9,134.7 L695.6,144.5 L695.9,149.4 L697.7,155.3 L696.0,163.7 L693.3,165.0 L693.2,161.9 L691.4,162.8 L689.3,169.9 L686.0,172.6 L685.0,178.0 L680.9,182.5 L680.6,184.4 Z M647.0,90.7 L647.2,93.5 L645.1,94.0 L646.0,90.0 L647.0,90.7 Z M612.9,105.6 L610.4,103.1 L611.9,99.8 L608.0,99.3 L609.6,96.1 L609.7,92.0 L606.3,89.2 L604.4,86.2 L597.4,83.9 L595.3,84.7 L588.3,81.2 L571.4,76.4 L569.6,72.5 L566.6,71.1 L572.9,68.6 L575.8,65.8 L583.0,64.6 L587.7,61.2 L589.8,61.0 L591.6,58.6 L596.7,55.1 L599.3,52.2 L603.2,50.3 L606.9,51.9 L600.4,59.1 L598.9,61.6 L599.0,65.9 L602.1,62.6 L607.8,63.1 L612.2,65.4 L616.1,71.8 L618.3,73.0 L622.4,71.9 L623.4,73.4 L627.5,74.1 L636.3,68.7 L640.9,68.2 L647.0,68.5 L651.1,66.7 L654.2,66.6 L654.9,73.1 L658.1,74.0 L661.3,73.0 L662.7,74.5 L664.8,72.6 L669.6,71.9 L669.7,80.2 L671.8,83.6 L675.1,84.5 L675.4,82.2 L678.5,82.2 L680.3,84.7 L678.8,86.5 L669.8,84.9 L665.5,85.9 L660.9,83.1 L659.5,85.7 L660.2,87.9 L658.1,87.4 L655.0,84.1 L649.7,82.2 L647.1,82.1 L644.5,85.2 L640.1,85.9 L635.5,85.3 L633.6,86.6 L633.1,89.2 L628.0,91.3 L628.3,88.3 L626.1,87.6 L625.2,90.8 L621.4,90.9 L619.7,92.4 L617.2,97.9 L612.5,104.9 L612.9,105.6 Z M593.0,38.1 L588.8,41.0 L586.7,41.4 L586.9,39.0 L597.2,33.4 L595.2,37.3 L593.0,38.1 Z"/>
    <path id="state-MN" class="state" data-state="MN" data-name="Minnesota" d="M540.4,67.8 L539.1,66.8 L535.8,68.7 L535.8,82.6 L534.8,84.0 L530.1,85.9 L526.4,90.9 L526.1,94.3 L528.0,94.5 L530.1,97.5 L528.2,101.1 L528.5,105.1 L527.4,113.7 L531.7,117.9 L535.1,118.3 L536.8,120.9 L541.8,123.4 L542.6,126.5 L547.3,130.5 L549.9,131.4 L553.0,136.5 L552.6,140.2 L553.5,142.9 L551.0,142.9 L467.7,142.9 L467.7,100.8 L463.9,98.1 L461.1,93.6 L465.5,88.6 L465.9,85.9 L465.3,76.6 L463.3,74.1 L462.0,69.0 L462.2,62.7 L461.6,61.7 L461.1,46.7 L457.8,38.7 L456.6,34.2 L456.0,24.7 L457.1,21.5 L455.0,14.1 L489.0,14.1 L489.0,5.1 L492.2,5.3 L494.3,7.1 L496.5,19.3 L498.2,20.7 L503.6,21.1 L504.2,22.3 L510.5,22.8 L511.2,25.4 L516.6,24.7 L516.6,23.7 L520.8,22.4 L524.5,22.9 L528.7,24.8 L529.9,27.3 L532.3,27.0 L534.5,32.3 L535.6,30.1 L539.7,29.1 L540.5,31.3 L545.3,32.8 L545.3,34.9 L547.7,36.5 L552.7,35.6 L555.6,33.3 L559.7,31.9 L561.1,35.4 L563.9,34.6 L567.2,35.4 L571.1,34.9 L575.5,37.8 L579.7,37.3 L579.3,38.6 L573.8,41.5 L566.2,43.8 L561.3,46.3 L554.2,52.3 L551.1,56.0 L546.5,60.3 L539.1,65.9 L540.4,67.8 Z"/>
    <path id="state-MO" class="state" data-state="MO" data-name="Missouri" d="M543.3,210.7 L545.0,210.6 L548.4,215.3 L550.2,216.1 L548.7,219.4 L548.9,224.2 L551.0,231.4 L556.0,237.4 L561.5,242.4 L562.5,250.1 L563.8,251.5 L565.7,249.4 L569.3,250.4 L571.6,252.0 L570.0,254.9 L570.4,257.1 L567.6,263.1 L567.6,266.8 L572.4,271.6 L574.2,274.6 L576.0,274.1 L581.3,279.1 L581.3,282.7 L582.6,287.2 L581.3,288.8 L585.0,295.4 L587.6,295.7 L586.2,305.2 L583.8,304.2 L582.9,307.1 L581.8,307.1 L580.9,307.1 L581.0,312.9 L577.8,318.8 L567.2,318.8 L569.8,314.4 L572.3,311.6 L570.9,307.1 L500.1,307.0 L497.8,307.0 L497.8,295.3 L497.8,244.7 L494.3,243.6 L491.7,238.1 L489.7,235.7 L493.4,228.9 L488.1,227.1 L486.4,225.0 L482.4,218.8 L478.9,211.2 L497.5,211.6 L520.0,211.4 L543.3,210.7 Z"/>
    <path id="state-MS" class="state" data-state="MS" data-name="Mississippi" d="M598.4,342.3 L602.8,342.3 L604.5,344.7 L602.2,370.4 L598.4,414.9 L599.7,450.8 L597.9,451.8 L593.9,451.3 L592.3,449.7 L588.4,450.8 L582.9,453.5 L581.2,455.1 L579.2,452.7 L578.6,448.8 L575.9,443.7 L577.5,436.0 L546.6,436.0 L547.7,434.3 L546.6,429.7 L548.5,429.4 L548.8,420.8 L550.4,421.4 L551.4,416.1 L555.3,412.8 L557.2,407.4 L556.9,400.4 L554.5,397.5 L554.6,392.7 L555.8,391.7 L554.3,389.0 L555.5,385.8 L554.6,380.9 L556.1,379.0 L553.2,375.9 L555.8,368.7 L558.8,365.0 L557.8,362.4 L561.2,358.6 L561.1,357.1 L564.1,355.8 L563.8,351.1 L565.5,350.1 L566.7,346.1 L569.3,344.3 L568.3,342.3 L598.4,342.3 Z"/>
    <path id="state-MT" class="state" data-state="MT" data-name="Montana" d="M343.2,14.1 L343.3,40.8 L343.2,85.7 L343.3,107.9 L343.1,107.9 L312.7,107.8 L260.8,107.8 L228.5,107.8 L228.6,120.1 L225.6,117.6 L223.0,113.5 L219.2,118.4 L215.9,119.3 L215.1,118.0 L211.3,119.1 L209.0,117.9 L205.3,120.0 L200.1,119.8 L198.4,122.0 L196.5,120.7 L194.4,113.2 L191.0,112.9 L189.1,111.0 L189.2,106.5 L187.2,104.8 L184.5,100.1 L182.9,95.6 L183.4,93.6 L180.4,91.3 L178.8,93.9 L174.7,97.1 L171.2,94.7 L172.1,92.1 L170.9,89.7 L173.8,87.1 L172.1,83.5 L172.6,78.0 L174.9,69.3 L170.2,69.4 L170.0,67.8 L165.7,65.4 L165.0,62.8 L158.9,56.5 L158.5,54.9 L155.2,53.9 L152.0,51.0 L152.0,44.6 L146.7,38.1 L146.7,14.1 L221.1,14.2 L254.7,14.1 L343.2,14.1 Z"/>
    <path id="state-NC" class="state" data-state="NC" data-name="North Carolina" d="M721.2,305.6 L732.4,306.0 L745.2,306.1 L804.9,305.8 L806.8,315.2 L802.2,314.3 L801.6,315.5 L796.0,316.9 L795.2,318.2 L791.5,318.5 L791.7,320.2 L796.2,319.1 L796.8,320.1 L801.7,318.9 L803.4,321.1 L806.3,320.2 L807.4,325.9 L806.4,328.6 L804.4,328.8 L800.3,334.6 L794.8,334.8 L793.9,338.8 L796.3,342.8 L798.2,343.6 L794.7,350.1 L791.7,349.3 L786.5,350.0 L782.9,351.4 L777.2,355.9 L772.8,361.8 L770.4,369.2 L767.0,367.6 L761.1,369.1 L742.5,346.8 L724.1,346.4 L724.4,343.7 L721.9,339.7 L720.2,341.1 L720.1,338.7 L699.9,337.5 L695.4,338.4 L691.9,340.6 L686.3,342.2 L677.9,342.5 L666.4,342.4 L666.9,336.9 L670.1,336.4 L671.4,332.5 L675.4,329.1 L679.9,328.9 L683.9,325.3 L688.2,324.1 L691.7,318.8 L694.0,317.3 L694.4,319.6 L700.9,315.1 L703.9,316.0 L705.9,311.6 L709.0,310.5 L709.7,304.9 L721.2,305.6 Z"/>
    <path id="state-ND" class="state" data-state="ND" data-name="North Dakota" d="M455.0,14.1 L457.1,21.5 L456.0,24.7 L456.6,34.2 L457.8,38.7 L461.1,46.7 L461.6,61.7 L462.2,62.7 L462.0,69.0 L463.3,74.1 L465.3,76.6 L465.9,85.9 L343.2,85.7 L343.3,40.8 L343.2,14.1 L455.0,14.1 Z"/>
    <path id="state-NE" class="state" data-state="NE" data-name="Nebraska" d="M355.1,154.6 L382.9,154.7 L434.1,154.7 L434.7,155.9 L443.1,160.1 L445.1,157.8 L447.4,158.3 L455.1,158.3 L463.7,162.7 L464.8,166.0 L467.8,166.7 L470.7,177.2 L473.0,178.8 L474.1,182.9 L473.1,185.7 L473.5,188.9 L476.4,190.9 L476.3,196.8 L477.9,202.1 L477.0,208.1 L478.9,211.2 L482.4,218.8 L486.4,225.0 L378.3,225.0 L375.9,225.0 L375.9,201.5 L343.2,201.5 L343.2,154.6 L355.1,154.6 Z"/>
    <path id="state-NH" class="state" data-state="NH" data-name="New Hampshire" d="M883.3,100.7 L884.1,115.9 L885.2,146.7 L887.8,149.4 L887.5,151.7 L889.5,153.3 L887.6,157.7 L886.0,157.3 L881.6,159.6 L879.8,161.8 L860.8,161.0 L859.3,159.2 L859.5,155.8 L861.0,154.5 L860.8,151.2 L862.0,141.3 L864.9,136.6 L866.3,131.4 L867.8,129.5 L867.7,123.7 L873.2,121.5 L875.9,117.5 L874.3,113.7 L876.6,109.8 L876.4,107.5 L878.7,101.5 L882.5,102.1 L883.3,100.7 Z"/>
    <path id="state-NJ" class="state" data-state="NJ" data-name="New Jersey" d="M831.6,198.3 L837.1,201.6 L835.1,208.4 L832.4,209.9 L831.0,213.5 L835.5,215.3 L835.8,218.0 L833.9,230.6 L828.7,240.0 L825.4,242.7 L822.5,248.6 L820.9,244.7 L816.2,242.8 L810.4,237.7 L810.0,234.2 L809.9,233.7 L810.8,232.4 L812.3,229.6 L816.7,227.7 L817.0,225.9 L822.0,222.0 L822.8,220.0 L818.2,215.2 L818.0,212.3 L815.9,211.5 L815.7,208.8 L818.3,204.7 L816.9,202.2 L821.0,197.4 L821.9,194.8 L824.1,193.1 L831.6,198.3 Z"/>
    <path id="state-NM" class="state" data-state="NM" data-name="New Mexico" d="M288.0,295.3 L297.0,295.4 L338.5,295.4 L360.4,295.3 L360.4,307.0 L359.8,307.0 L359.7,365.3 L359.3,389.0 L359.3,412.5 L301.2,412.5 L300.7,414.8 L302.6,417.5 L275.1,417.5 L275.1,428.2 L261.3,428.2 L261.4,295.3 L288.0,295.3 Z"/>
    <path id="state-NV" class="state" data-state="NV" data-name="Nevada" d="M130.6,178.1 L179.5,178.2 L179.4,295.3 L179.4,314.2 L177.7,318.2 L176.1,318.3 L174.1,315.5 L168.1,316.4 L169.1,330.1 L170.4,334.6 L170.8,339.0 L169.8,342.2 L149.9,319.4 L138.6,307.0 L122.9,290.2 L103.0,269.5 L81.9,248.5 L82.0,218.8 L81.9,178.2 L103.2,178.4 L130.6,178.1 Z"/>
    <path id="state-NY" class="state" data-state="NY" data-name="New York" d="M846.2,107.5 L846.4,112.4 L845.5,116.7 L847.1,121.0 L846.6,125.5 L844.7,130.2 L846.2,136.6 L845.3,138.6 L847.9,142.4 L847.3,158.6 L847.5,160.7 L843.6,176.1 L843.9,177.0 L842.8,194.7 L844.0,196.6 L840.0,199.2 L841.1,201.9 L848.1,203.8 L849.6,202.4 L855.6,202.4 L858.6,201.6 L863.7,197.9 L864.0,200.6 L866.6,201.7 L860.6,205.2 L847.9,210.3 L842.7,211.4 L839.2,211.1 L836.6,212.3 L835.1,208.4 L837.1,201.6 L831.6,198.3 L824.1,193.1 L823.4,191.5 L820.9,191.3 L817.9,187.4 L818.3,183.9 L816.3,181.2 L815.0,181.3 L813.2,178.1 L741.1,178.1 L741.1,172.2 L741.1,171.8 L751.1,165.1 L752.8,161.9 L756.0,159.8 L754.7,155.8 L753.4,155.0 L752.4,148.6 L762.0,145.9 L770.5,146.0 L773.9,146.7 L777.6,149.2 L779.9,148.2 L787.0,148.3 L791.3,146.7 L795.9,142.4 L798.9,142.3 L799.0,135.9 L800.5,132.2 L796.8,129.6 L797.6,126.6 L804.2,122.7 L806.6,119.2 L814.5,111.4 L821.9,107.4 L833.1,108.0 L846.2,107.5 Z"/>
    <path id="state-OH" class="state" data-state="OH" data-name="Ohio" d="M728.7,178.6 L728.7,210.1 L726.3,211.4 L727.4,213.9 L727.4,217.5 L725.1,223.2 L723.6,231.8 L717.2,239.3 L715.2,240.4 L713.4,238.8 L711.5,242.2 L709.6,242.0 L707.5,246.5 L708.0,249.2 L706.3,251.4 L703.9,247.8 L700.8,253.5 L701.6,257.1 L699.6,258.3 L699.0,261.4 L694.7,261.9 L692.5,258.7 L690.6,258.1 L689.9,254.1 L687.5,254.9 L685.7,257.2 L679.5,255.4 L676.9,257.1 L673.3,253.8 L668.1,252.9 L667.9,250.9 L664.6,246.0 L658.3,246.0 L658.5,213.3 L658.5,185.3 L680.6,184.4 L687.0,187.6 L689.1,189.5 L690.8,187.7 L694.3,191.5 L696.6,192.6 L704.2,189.5 L708.7,190.2 L713.5,185.8 L720.6,181.6 L728.7,178.6 L728.7,178.6 Z"/>
    <path id="state-OK" class="state" data-state="OK" data-name="Oklahoma" d="M408.1,295.3 L497.8,295.3 L497.8,307.0 L500.8,332.9 L499.9,374.1 L493.6,371.6 L492.0,368.9 L487.8,366.5 L486.7,368.6 L482.5,368.5 L481.6,367.2 L477.7,369.5 L476.1,368.2 L472.6,369.4 L469.4,373.0 L468.1,370.9 L464.7,369.2 L461.1,369.2 L460.0,366.5 L455.9,371.8 L454.5,368.9 L452.6,369.8 L451.2,367.8 L447.3,366.0 L444.5,369.1 L443.2,365.9 L440.9,365.5 L439.5,363.0 L436.4,361.9 L434.3,364.1 L433.0,362.2 L429.7,362.4 L426.2,360.4 L422.8,360.6 L421.7,356.2 L416.5,355.9 L414.5,356.7 L410.8,352.2 L409.6,352.4 L409.6,307.0 L379.9,307.0 L360.4,307.0 L360.4,295.3 L376.1,295.4 L408.1,295.3 Z"/>
    <path id="state-OR" class="state" data-state="OR" data-name="Oregon" d="M29.3,80.3 L30.8,80.0 L34.3,82.5 L35.9,85.3 L36.7,92.4 L45.1,94.9 L52.3,91.2 L56.8,90.8 L62.0,92.1 L62.5,93.6 L71.5,90.3 L73.6,91.5 L78.5,90.8 L82.5,88.5 L89.7,86.5 L96.2,85.9 L98.5,84.4 L132.4,84.5 L134.6,88.5 L138.5,90.2 L139.8,93.4 L136.4,100.3 L135.4,104.4 L133.6,107.3 L133.8,109.4 L132.1,112.9 L130.4,113.7 L127.1,122.0 L128.3,125.2 L131.4,125.6 L132.8,127.5 L130.6,135.2 L130.6,178.1 L103.2,178.4 L81.9,178.2 L64.9,178.2 L42.9,177.9 L28.9,178.0 L12.9,178.1 L10.5,175.4 L9.3,167.8 L9.6,162.6 L7.3,158.5 L8.9,154.6 L10.1,148.3 L12.5,141.7 L13.6,135.7 L15.4,115.9 L15.1,113.2 L16.7,104.4 L17.4,92.4 L16.5,85.7 L17.3,81.7 L23.8,78.2 L26.7,80.9 L29.3,80.3 Z"/>
    <path id="state-PA" class="state" data-state="PA" data-name="Pennsylvania" d="M741.1,172.2 L741.1,178.1 L813.2,178.1 L815.0,181.3 L816.3,181.2 L818.3,183.9 L817.9,187.4 L820.9,191.3 L823.4,191.5 L824.1,193.1 L821.9,194.8 L821.0,197.4 L816.9,202.2 L818.3,204.7 L815.7,208.8 L815.9,211.5 L818.0,212.3 L818.2,215.2 L822.8,220.0 L822.0,222.0 L817.0,225.9 L816.7,227.7 L812.3,229.6 L809.0,228.9 L806.2,231.5 L745.8,231.5 L728.7,231.5 L728.7,210.1 L728.7,178.6 L728.7,178.6 L731.8,177.3 L741.1,171.8 L741.1,172.2 Z"/>
    <path id="state-RI" class="state" data-state="RI" data-name="Rhode Island" d="M881.4,185.7 L882.7,189.9 L879.4,190.4 L881.4,185.7 Z M875.9,177.7 L878.4,177.7 L879.3,183.2 L881.0,184.9 L879.0,184.5 L877.3,188.0 L876.8,192.9 L870.6,194.0 L871.5,191.8 L871.5,178.0 L875.9,177.7 Z"/>
    <path id="state-SC" class="state" data-state="SC" data-name="South Carolina" d="M691.9,340.6 L695.4,338.4 L699.9,337.5 L720.1,338.7 L720.2,341.1 L721.9,339.7 L724.4,343.7 L724.1,346.4 L742.5,346.8 L761.1,369.1 L758.2,370.3 L754.6,374.1 L751.1,380.2 L750.5,385.0 L747.7,388.9 L744.0,388.9 L743.2,391.7 L739.4,394.8 L737.2,398.1 L733.8,399.5 L730.1,403.1 L729.8,404.8 L726.4,406.7 L722.7,411.7 L718.9,409.7 L718.8,405.7 L716.2,399.4 L714.0,397.7 L713.8,392.7 L712.7,388.9 L708.3,385.3 L705.5,380.9 L705.6,378.2 L701.2,374.3 L699.1,369.9 L695.3,366.9 L692.7,362.1 L692.2,359.4 L689.7,354.2 L688.0,354.6 L682.5,349.6 L682.8,347.2 L686.3,342.2 L691.9,340.6 Z"/>
    <path id="state-SD" class="state" data-state="SD" data-name="South Dakota" d="M343.2,85.7 L465.9,85.9 L465.5,88.6 L461.1,93.6 L463.9,98.1 L467.7,100.8 L467.7,142.9 L465.5,143.4 L466.4,145.4 L465.9,149.5 L468.0,151.8 L466.7,153.5 L466.2,158.1 L464.7,161.5 L467.8,166.7 L464.8,166.0 L463.7,162.7 L455.1,158.3 L447.4,158.3 L445.1,157.8 L443.1,160.1 L434.7,155.9 L434.1,154.7 L382.9,154.7 L355.1,154.6 L343.2,154.6 L343.1,107.9 L343.3,107.9 L343.2,85.7 Z"/>
    <path id="state-TN" class="state" data-state="TN" data-name="Tennessee" d="M605.2,307.1 L605.0,302.9 L608.6,303.9 L629.2,303.4 L647.3,304.3 L650.6,304.0 L662.8,304.8 L676.8,305.1 L677.0,304.7 L709.7,304.9 L709.0,310.5 L705.9,311.6 L703.9,316.0 L700.9,315.1 L694.4,319.6 L694.0,317.3 L691.7,318.8 L688.2,324.1 L683.9,325.3 L679.9,328.9 L675.4,329.1 L671.4,332.5 L670.1,336.4 L666.9,336.9 L666.4,342.4 L645.4,342.5 L616.6,342.2 L602.8,342.3 L598.4,342.3 L568.3,342.3 L569.9,341.6 L571.5,337.5 L571.2,331.9 L574.3,328.0 L574.8,324.4 L577.3,323.2 L577.8,318.8 L581.0,312.9 L580.9,307.1 L581.8,307.1 L582.9,307.1 L584.9,306.9 L605.2,307.1 Z"/>
    <path id="state-TX" class="state" data-state="TX" data-name="Texas" d="M379.9,307.0 L409.6,307.0 L409.6,352.4 L410.8,352.2 L414.5,356.7 L416.5,355.9 L421.7,356.2 L422.8,360.6 L426.2,360.4 L429.7,362.4 L433.0,362.2 L434.3,364.1 L436.4,361.9 L439.5,363.0 L440.9,365.5 L443.2,365.9 L444.5,369.1 L447.3,366.0 L451.2,367.8 L452.6,369.8 L454.5,368.9 L455.9,371.8 L460.0,366.5 L461.1,369.2 L464.7,369.2 L468.1,370.9 L469.4,373.0 L472.6,369.4 L476.1,368.2 L477.7,369.5 L481.6,367.2 L482.5,368.5 L486.7,368.6 L487.8,366.5 L492.0,368.9 L493.6,371.6 L499.9,374.1 L501.6,376.3 L504.8,375.1 L507.2,376.2 L507.2,388.6 L507.2,412.6 L510.8,417.8 L510.9,422.9 L515.3,432.4 L515.6,437.4 L513.9,443.4 L512.3,445.9 L512.8,449.1 L511.7,451.5 L512.9,456.0 L509.1,464.4 L510.5,466.7 L507.8,466.8 L499.3,470.0 L496.2,468.2 L495.7,464.4 L493.5,467.1 L492.0,466.4 L491.2,469.8 L492.9,471.2 L493.2,475.5 L490.1,480.2 L485.2,485.9 L475.3,492.1 L474.3,491.1 L471.4,492.6 L471.3,491.2 L467.2,492.2 L465.4,489.3 L464.2,489.9 L468.5,495.9 L465.4,497.9 L462.4,496.7 L462.0,500.9 L458.3,505.3 L454.5,513.4 L452.1,521.9 L450.3,521.2 L449.8,524.3 L451.7,523.5 L450.8,529.7 L449.6,530.0 L449.5,533.4 L451.0,535.4 L451.5,542.4 L453.3,544.8 L453.7,549.3 L455.1,553.3 L450.1,555.8 L448.0,552.7 L444.2,551.5 L439.1,551.8 L434.7,547.9 L431.4,547.5 L428.8,544.5 L425.4,543.4 L423.1,540.5 L421.6,533.4 L418.6,529.2 L419.0,525.6 L417.6,521.7 L418.1,518.4 L416.0,514.7 L414.3,514.3 L411.5,511.0 L410.6,506.7 L408.2,502.9 L404.7,499.7 L403.0,492.6 L401.4,490.7 L399.2,485.0 L398.5,480.4 L396.5,477.1 L393.0,474.1 L392.1,472.1 L388.9,470.3 L386.4,465.1 L379.2,464.0 L374.9,464.2 L371.2,462.4 L370.4,464.9 L366.5,465.6 L363.5,470.5 L361.7,478.4 L360.7,478.5 L358.5,483.1 L355.8,483.2 L351.8,479.6 L341.6,473.9 L339.7,470.8 L335.7,467.8 L332.9,461.2 L332.8,455.1 L330.0,450.2 L329.3,446.0 L327.5,443.3 L321.2,439.3 L317.8,433.9 L315.0,432.0 L312.0,427.4 L307.9,425.0 L305.0,418.8 L302.6,417.5 L300.7,414.8 L301.2,412.5 L359.3,412.5 L359.3,389.0 L359.7,365.3 L359.8,307.0 L360.4,307.0 L379.9,307.0 Z"/>
    <path id="state-UT" class="state" data-state="UT" data-name="Utah" d="M210.3,178.2 L228.6,178.1 L228.6,201.6 L261.3,201.6 L261.2,245.5 L261.2,265.4 L261.4,268.0 L261.4,295.3 L237.6,295.2 L179.4,295.3 L179.5,178.2 L210.3,178.2 Z"/>
    <path id="state-VA" class="state" data-state="VA" data-name="Virginia" d="M812.6,271.6 L815.1,271.2 L813.0,275.2 L810.7,276.6 L809.4,282.0 L806.0,290.7 L803.2,292.5 L802.3,289.3 L803.7,282.1 L808.1,273.0 L812.6,271.6 Z M802.5,273.0 L802.8,273.0 L802.0,273.0 L802.5,273.0 Z M764.2,237.5 L772.8,245.4 L774.6,240.9 L777.1,241.3 L778.9,243.2 L778.9,246.7 L782.3,247.8 L784.4,250.0 L785.7,253.3 L784.2,257.1 L782.3,258.1 L781.0,261.4 L781.7,263.9 L786.1,263.1 L786.9,266.8 L792.7,268.3 L794.3,271.3 L798.9,274.5 L796.8,281.1 L798.7,286.2 L796.4,288.6 L796.2,291.6 L798.2,293.4 L796.0,296.2 L792.6,292.5 L791.8,293.8 L794.7,296.5 L802.8,297.1 L804.9,305.8 L745.2,306.1 L732.4,306.0 L721.2,305.6 L709.7,304.9 L677.0,304.7 L685.8,301.3 L686.9,298.8 L690.0,297.9 L690.2,295.8 L692.6,294.3 L692.6,292.5 L698.6,289.0 L704.9,282.7 L704.7,284.7 L706.9,288.6 L709.7,290.6 L711.7,290.4 L714.9,287.3 L717.1,289.8 L721.3,288.5 L728.8,284.0 L729.4,285.4 L732.3,283.4 L732.4,279.1 L734.2,275.4 L737.2,271.9 L738.5,267.7 L741.7,263.3 L743.0,258.0 L745.8,261.2 L748.4,262.2 L750.1,260.3 L753.6,251.9 L755.7,254.0 L763.3,244.5 L764.2,237.5 Z"/>
    <path id="state-VT" class="state" data-state="VT" data-name="Vermont" d="M876.4,107.5 L876.6,109.8 L874.3,113.7 L875.9,117.5 L873.2,121.5 L867.7,123.7 L867.8,129.5 L866.3,131.4 L864.9,136.6 L862.0,141.3 L860.8,151.2 L861.0,154.5 L859.5,155.8 L859.3,159.2 L860.8,161.0 L847.5,160.7 L847.3,158.6 L847.9,142.4 L845.3,138.6 L846.2,136.6 L844.7,130.2 L846.6,125.5 L847.1,121.0 L845.5,116.7 L846.4,112.4 L846.2,107.5 L863.2,107.8 L876.4,107.5 Z"/>
    <path id="state-WA" class="state" data-state="WA" data-name="Washington" d="M130.5,14.1 L130.3,43.1 L130.4,74.4 L130.2,76.3 L132.3,80.4 L132.4,84.5 L98.5,84.4 L96.2,85.9 L89.7,86.5 L82.5,88.5 L78.5,90.8 L73.6,91.5 L71.5,90.3 L62.5,93.6 L62.0,92.1 L56.8,90.8 L52.3,91.2 L45.1,94.9 L36.7,92.4 L35.9,85.3 L34.3,82.5 L30.8,80.0 L29.3,80.3 L26.7,80.9 L23.8,78.2 L20.9,77.3 L18.4,78.8 L15.3,76.7 L15.9,73.5 L18.1,71.8 L14.8,66.9 L12.5,54.2 L11.2,52.6 L9.4,43.6 L6.2,40.1 L4.8,33.2 L6.6,28.6 L9.9,30.7 L16.7,33.7 L21.2,33.6 L25.8,34.7 L30.1,33.6 L32.2,35.6 L36.0,35.5 L38.7,40.6 L40.7,40.2 L41.1,47.2 L42.2,53.5 L43.8,52.8 L42.2,47.4 L42.7,42.2 L45.4,36.8 L43.2,34.6 L43.0,30.7 L41.4,26.5 L42.2,23.4 L41.1,19.8 L38.5,19.3 L36.1,16.6 L36.7,14.1 L130.5,14.1 Z M37.4,30.2 L39.5,29.2 L39.2,34.0 L36.6,32.2 L37.4,30.2 Z M32.4,23.8 L34.1,20.7 L36.6,24.5 L35.9,27.7 L32.1,26.8 L32.4,23.8 Z"/>
    <path id="state-WI" class="state" data-state="WI" data-name="Wisconsin" d="M566.6,71.1 L569.6,72.5 L571.4,76.4 L588.3,81.2 L595.3,84.7 L597.4,83.9 L604.4,86.2 L606.3,89.2 L609.7,92.0 L609.6,96.1 L608.0,99.3 L611.9,99.8 L610.4,103.1 L612.9,105.6 L612.2,108.4 L609.1,108.9 L606.4,114.3 L605.4,118.0 L607.3,118.7 L609.8,116.2 L612.5,111.6 L615.9,109.8 L618.6,103.9 L622.0,102.6 L621.8,105.7 L619.4,108.5 L614.8,118.3 L613.6,123.7 L613.7,127.5 L612.0,128.8 L610.4,134.1 L611.0,138.6 L609.6,141.5 L607.6,148.8 L608.0,154.6 L610.0,159.8 L609.4,166.6 L593.2,166.6 L562.9,166.2 L561.7,163.2 L555.9,160.5 L554.6,156.8 L554.1,151.5 L556.1,148.7 L553.7,146.4 L553.5,142.9 L552.6,140.2 L553.0,136.5 L549.9,131.4 L547.3,130.5 L542.6,126.5 L541.8,123.4 L536.8,120.9 L535.1,118.3 L531.7,117.9 L527.4,113.7 L528.5,105.1 L528.2,101.1 L530.1,97.5 L528.0,94.5 L526.1,94.3 L526.4,90.9 L530.1,85.9 L534.8,84.0 L535.8,82.6 L535.8,68.7 L539.1,66.8 L540.4,67.8 L544.1,68.1 L555.4,64.1 L559.7,61.9 L561.1,63.6 L558.9,66.7 L564.2,70.7 L566.6,71.1 Z"/>
    <path id="state-WV" class="state" data-state="WV" data-name="West Virginia" d="M728.7,210.1 L728.7,231.5 L745.8,231.5 L745.6,243.6 L748.8,241.4 L752.0,237.4 L754.2,238.2 L757.4,234.7 L762.3,236.4 L762.9,233.8 L765.6,233.9 L767.1,232.2 L769.9,234.3 L772.7,234.3 L774.6,240.9 L772.8,245.4 L764.2,237.5 L763.3,244.5 L755.7,254.0 L753.6,251.9 L750.1,260.3 L748.4,262.2 L745.8,261.2 L743.0,258.0 L741.7,263.3 L738.5,267.7 L737.2,271.9 L734.2,275.4 L732.4,279.1 L732.3,283.4 L729.4,285.4 L728.8,284.0 L721.3,288.5 L717.1,289.8 L714.9,287.3 L711.7,290.4 L709.7,290.6 L706.9,288.6 L704.7,284.7 L704.9,282.7 L702.8,282.3 L699.6,279.6 L698.8,277.0 L696.2,273.5 L694.3,269.0 L694.7,261.9 L699.0,261.4 L699.6,258.3 L701.6,257.1 L700.8,253.5 L703.9,247.8 L706.3,251.4 L708.0,249.2 L707.5,246.5 L709.6,242.0 L711.5,242.2 L713.4,238.8 L715.2,240.4 L717.2,239.3 L723.6,231.8 L725.1,223.2 L727.4,217.5 L727.4,213.9 L726.3,211.4 L728.7,210.1 Z"/>
    <path id="state-WY" class="state" data-state="WY" data-name="Wyoming" d="M260.8,107.8 L312.7,107.8 L343.1,107.9 L343.2,154.6 L343.2,201.5 L315.7,201.6 L279.8,201.5 L261.3,201.6 L228.6,201.6 L228.6,178.1 L228.6,120.1 L228.5,107.8 L260.8,107.8 Z"/>
  </g>
  <g id="alaska" transform="translate(20, 420) scale(0.55)">
    <path id="state-AK" class="state" data-state="AK" data-name="Alaska" d="M265.7,160.8 L265.9,159.2 L267.1,160.2 L266.9,161.8 L265.5,161.6 L265.7,160.8 Z M264.5,157.9 L265.5,159.0 L264.9,160.7 L264.5,160.1 L264.5,157.9 Z M258.2,148.2 L259.5,148.0 L260.1,148.4 L259.9,149.8 L258.7,150.1 L257.7,149.2 L258.2,148.2 Z M254.8,149.0 L257.1,149.4 L257.7,151.2 L260.1,153.2 L260.9,154.5 L261.0,155.5 L261.6,155.7 L261.7,157.1 L262.6,158.4 L262.7,159.6 L263.4,159.3 L263.6,160.2 L263.8,163.9 L263.4,164.7 L261.8,164.6 L261.4,162.7 L260.9,162.9 L259.8,161.5 L259.4,161.9 L258.5,161.5 L258.6,162.9 L259.5,162.5 L260.1,163.0 L259.8,165.0 L258.8,164.7 L257.2,162.3 L256.7,161.0 L256.8,159.7 L255.6,159.8 L255.6,158.9 L256.5,158.7 L257.5,157.9 L257.1,156.3 L255.9,156.0 L255.7,153.5 L255.3,152.2 L254.5,153.1 L254.2,151.7 L255.0,151.0 L254.4,149.4 L254.8,149.0 Z M254.0,156.6 L255.0,157.2 L255.8,156.5 L256.5,156.8 L255.7,158.2 L254.6,157.8 L254.0,156.6 Z M253.1,143.5 L252.3,142.6 L253.2,142.0 L256.2,142.8 L257.5,142.8 L258.4,144.6 L260.1,146.0 L259.9,147.1 L259.0,147.7 L257.8,147.4 L256.9,148.1 L255.7,147.7 L254.4,148.1 L254.1,145.9 L254.3,144.4 L253.3,144.4 L253.1,143.5 Z M251.9,147.8 L251.2,147.1 L250.3,145.5 L250.3,144.3 L250.9,143.7 L251.6,144.3 L251.8,143.3 L253.9,145.0 L254.1,146.7 L253.4,146.9 L252.9,148.8 L253.4,149.3 L252.8,151.5 L251.9,151.0 L251.8,152.4 L251.3,151.7 L251.0,149.0 L251.9,147.8 Z M249.1,149.7 L248.9,150.8 L248.1,150.1 L246.1,145.9 L244.8,144.7 L245.2,143.7 L244.7,141.3 L243.3,139.3 L244.8,137.5 L245.4,138.2 L246.7,138.9 L247.9,139.0 L247.9,140.5 L249.1,145.4 L249.1,149.7 Z M248.6,131.2 L250.5,131.9 L251.6,131.8 L251.5,132.6 L253.1,135.2 L252.0,134.8 L251.7,135.6 L252.9,137.0 L253.3,139.4 L252.1,140.0 L251.7,140.9 L249.8,142.6 L249.2,142.5 L249.0,140.7 L249.4,139.6 L249.2,138.0 L248.5,136.0 L248.7,135.0 L248.2,132.4 L247.5,131.3 L247.3,129.4 L248.6,131.2 Z M242.4,139.7 L243.1,139.7 L243.9,141.4 L243.6,142.6 L242.4,142.9 L242.5,141.0 L242.4,139.7 Z M240.0,131.4 L241.7,131.4 L242.8,130.6 L244.3,131.7 L243.5,133.0 L243.8,133.4 L244.6,132.0 L246.5,132.5 L247.5,133.6 L246.9,135.4 L247.4,135.6 L248.0,138.1 L246.6,138.5 L243.9,136.4 L244.0,138.5 L243.2,139.3 L242.2,139.0 L241.6,137.7 L240.4,136.8 L239.6,135.0 L238.4,134.1 L238.5,132.6 L239.3,132.1 L239.5,130.8 L240.0,131.4 Z M180.7,112.4 L178.4,114.8 L178.2,115.7 L176.4,116.3 L176.8,114.9 L178.8,113.4 L180.0,111.7 L180.7,112.4 Z M178.1,108.8 L177.8,110.8 L177.0,112.8 L175.9,112.1 L176.8,109.8 L178.1,108.8 Z M176.9,16.7 L177.4,17.1 L180.3,17.5 L181.8,17.3 L183.9,17.3 L186.1,17.7 L187.4,17.4 L188.7,18.2 L191.1,19.1 L194.2,19.3 L195.1,18.8 L197.2,18.5 L198.1,17.8 L200.4,17.7 L200.4,18.2 L201.7,17.9 L204.5,18.6 L206.4,19.8 L208.2,20.4 L208.6,20.9 L210.2,21.0 L211.7,21.9 L212.0,22.5 L213.0,22.0 L214.1,22.4 L214.1,111.4 L216.7,112.2 L217.0,111.3 L219.7,112.5 L221.3,111.0 L224.6,110.9 L224.0,113.4 L224.8,114.3 L226.7,115.1 L227.2,116.5 L232.8,121.5 L233.6,124.7 L234.6,123.8 L237.0,122.3 L238.4,122.2 L239.0,121.1 L239.0,119.4 L239.9,119.4 L240.2,117.9 L241.9,117.5 L244.4,116.2 L246.9,118.4 L246.7,119.8 L247.3,121.1 L248.7,121.5 L250.5,123.5 L250.3,124.1 L251.2,125.2 L253.4,126.4 L257.1,131.9 L257.6,133.3 L258.8,134.8 L260.5,138.0 L262.1,140.8 L261.5,142.0 L263.2,142.4 L262.8,144.0 L264.2,144.7 L264.4,146.6 L265.8,146.5 L268.5,148.5 L270.2,148.9 L271.1,149.8 L271.9,150.1 L272.2,151.0 L274.0,151.3 L274.5,152.4 L273.7,154.6 L273.8,156.3 L274.6,159.3 L274.0,160.0 L272.7,162.7 L270.7,164.6 L270.2,163.6 L269.5,163.9 L269.0,161.9 L269.1,161.1 L268.5,160.1 L269.8,159.1 L269.4,158.7 L268.2,160.0 L267.5,159.2 L266.7,159.6 L264.4,157.5 L265.2,155.3 L263.7,156.0 L263.7,157.2 L262.5,156.3 L262.3,155.2 L263.1,154.0 L262.8,152.8 L261.7,153.8 L260.7,151.7 L260.0,152.1 L259.6,150.3 L260.6,149.1 L261.7,149.1 L261.4,147.7 L261.9,145.9 L261.1,146.0 L259.3,144.4 L258.1,142.5 L255.2,141.2 L255.3,137.4 L254.3,136.9 L254.5,135.3 L253.6,134.9 L252.2,132.8 L251.8,131.7 L249.3,131.4 L246.7,128.5 L245.5,122.0 L245.0,123.5 L245.2,124.8 L246.3,127.5 L246.0,127.9 L246.7,130.0 L246.6,131.4 L245.5,131.1 L244.7,129.5 L243.6,129.3 L242.0,129.7 L242.0,127.5 L241.1,125.6 L240.2,126.1 L236.8,124.2 L236.5,124.7 L238.4,125.4 L239.8,126.9 L240.4,127.0 L240.6,128.2 L241.3,129.7 L239.4,130.5 L238.3,130.0 L238.3,131.3 L236.8,130.3 L236.4,129.6 L235.5,129.6 L233.0,127.7 L231.1,126.0 L231.0,125.1 L229.9,123.6 L227.1,122.5 L225.5,121.5 L222.8,120.2 L221.0,119.0 L221.2,117.7 L221.7,118.1 L222.3,117.3 L221.7,115.4 L222.4,114.4 L222.1,113.9 L220.7,115.9 L217.9,117.2 L214.5,116.7 L211.7,115.5 L211.6,114.6 L210.2,114.8 L208.8,114.1 L205.7,113.5 L203.8,113.4 L199.7,113.9 L198.2,114.3 L196.4,112.9 L194.1,112.3 L193.3,111.5 L193.1,110.1 L191.5,110.2 L190.9,111.4 L188.1,109.8 L187.7,109.0 L184.7,110.4 L183.3,112.0 L182.7,110.5 L183.3,109.7 L184.2,109.9 L186.9,108.8 L186.6,107.9 L185.3,108.4 L184.8,107.3 L183.6,107.1 L182.4,104.3 L181.9,105.0 L180.2,105.4 L179.7,105.0 L179.1,105.9 L177.0,105.6 L176.9,106.6 L175.5,106.8 L174.8,106.5 L175.3,104.7 L174.7,104.8 L173.8,106.6 L175.1,107.3 L175.2,108.6 L176.0,110.1 L175.5,111.6 L174.5,111.1 L174.2,111.9 L175.2,112.2 L175.8,114.3 L174.3,114.7 L173.5,114.3 L172.2,114.9 L171.5,114.4 L169.8,114.5 L169.9,113.7 L169.1,114.2 L168.6,115.2 L167.9,114.3 L167.0,115.6 L167.4,116.1 L166.1,116.9 L165.0,117.0 L164.5,118.0 L163.3,118.8 L162.5,118.5 L161.5,119.6 L160.8,119.5 L159.2,121.7 L157.5,121.8 L157.0,121.1 L156.0,122.3 L153.9,121.4 L154.3,119.8 L155.7,119.2 L156.6,119.3 L156.9,118.7 L158.5,117.4 L158.6,116.4 L156.4,117.8 L154.7,117.0 L154.5,116.4 L155.4,114.0 L156.9,112.3 L157.1,110.9 L157.6,110.6 L157.8,109.1 L157.0,107.4 L158.9,106.8 L162.5,104.4 L163.4,105.3 L164.5,105.6 L166.1,104.6 L164.3,103.3 L163.6,102.3 L162.1,102.4 L161.1,101.9 L160.8,102.4 L159.1,103.0 L158.3,104.3 L156.6,104.7 L154.8,106.2 L154.6,107.2 L153.3,107.7 L153.0,108.8 L152.0,109.5 L151.6,111.4 L149.7,112.6 L150.6,113.6 L149.9,115.1 L148.1,115.3 L148.0,117.2 L146.3,117.9 L145.8,117.1 L145.0,118.6 L144.1,118.6 L144.2,119.7 L142.1,120.3 L141.7,123.2 L144.1,123.3 L146.0,124.1 L146.6,125.1 L145.8,126.6 L144.5,127.5 L143.3,127.6 L143.2,128.4 L142.4,128.7 L142.8,129.7 L141.9,131.3 L140.2,132.8 L139.2,132.8 L138.2,133.3 L137.3,133.2 L136.6,133.8 L136.8,134.5 L135.5,135.0 L135.2,136.1 L134.3,135.4 L133.2,137.6 L131.5,137.5 L131.6,138.7 L130.6,138.4 L129.9,138.9 L129.9,140.5 L128.7,143.0 L126.9,143.3 L125.4,144.5 L125.2,145.1 L124.2,144.2 L122.6,146.6 L122.1,145.9 L121.2,146.1 L121.0,147.5 L120.1,148.0 L119.0,147.8 L118.1,149.1 L119.6,149.6 L118.0,152.6 L113.2,153.6 L111.9,156.2 L111.6,155.7 L111.8,154.0 L110.8,153.7 L109.7,154.4 L109.5,155.0 L107.6,156.1 L106.9,157.4 L106.6,156.5 L106.1,157.5 L105.1,156.9 L103.0,158.5 L101.5,158.4 L101.7,157.2 L101.1,156.0 L100.5,157.0 L100.5,158.0 L98.5,161.2 L97.8,160.4 L97.6,161.6 L96.2,161.4 L96.0,159.5 L95.2,159.1 L94.9,159.8 L95.6,160.6 L95.3,161.9 L94.2,162.6 L93.3,161.1 L92.3,161.0 L92.1,161.6 L93.1,162.5 L91.3,163.8 L92.5,164.2 L92.6,164.8 L91.5,164.3 L90.1,165.6 L87.4,165.5 L86.0,166.4 L85.9,167.0 L84.3,167.7 L83.2,167.5 L82.8,165.7 L83.9,165.1 L84.8,163.0 L86.0,162.9 L88.4,161.5 L90.4,161.5 L91.2,162.8 L91.7,161.8 L91.6,160.7 L92.8,160.2 L94.0,160.2 L95.6,157.7 L97.5,155.4 L99.9,153.4 L102.7,152.5 L103.9,153.0 L105.0,152.4 L105.3,153.2 L104.7,154.2 L105.4,154.9 L105.6,153.7 L107.0,153.6 L107.4,154.4 L108.3,154.6 L108.3,153.7 L106.9,153.0 L106.7,152.4 L107.7,150.0 L109.0,148.6 L110.7,147.2 L113.5,146.0 L115.5,144.3 L116.5,144.9 L117.3,144.7 L116.9,143.6 L117.2,142.5 L118.7,140.3 L120.8,138.9 L122.5,137.0 L122.4,136.0 L123.8,128.6 L125.9,126.6 L125.6,125.1 L120.6,127.3 L119.0,127.0 L118.6,126.1 L117.7,125.7 L117.4,124.6 L116.6,125.1 L116.1,126.7 L116.9,128.8 L115.9,129.6 L114.9,129.3 L113.1,126.1 L111.9,124.5 L111.3,124.5 L110.9,125.7 L110.3,125.9 L109.5,124.9 L108.5,124.7 L108.1,123.1 L105.1,124.9 L102.5,126.3 L102.3,127.0 L100.2,128.1 L99.2,127.1 L100.1,125.9 L99.8,123.2 L99.1,120.4 L100.5,119.2 L99.3,116.8 L98.3,115.4 L97.5,113.4 L96.4,112.6 L96.1,114.3 L94.6,114.7 L92.4,115.8 L89.7,116.2 L88.2,116.1 L87.0,115.6 L86.8,114.0 L85.7,113.6 L84.0,111.5 L82.6,111.1 L80.9,108.8 L82.0,107.7 L82.3,105.8 L81.4,106.2 L81.3,105.0 L81.7,104.0 L80.6,103.1 L80.5,104.1 L79.1,103.7 L78.9,102.1 L77.9,101.9 L77.3,100.8 L77.3,99.4 L76.3,100.1 L76.1,98.8 L77.4,98.4 L76.3,97.0 L78.2,96.9 L78.2,95.1 L78.7,93.9 L82.1,90.1 L82.8,89.0 L83.3,89.2 L83.0,87.5 L84.4,84.8 L85.5,83.7 L87.6,83.2 L89.3,83.7 L91.6,85.4 L93.1,85.1 L95.2,83.5 L97.3,81.1 L98.4,80.8 L98.7,81.4 L101.3,81.4 L103.5,80.9 L105.6,78.4 L105.6,77.7 L104.6,75.3 L104.5,73.9 L102.9,72.4 L102.3,71.1 L103.9,71.5 L105.4,70.4 L105.5,69.3 L103.5,67.4 L102.0,68.9 L100.7,68.7 L99.4,69.5 L97.9,69.7 L97.5,70.3 L95.9,71.1 L95.3,72.5 L94.5,73.1 L94.1,71.4 L93.1,71.1 L92.4,72.4 L91.9,71.7 L90.0,70.8 L86.2,70.9 L83.4,71.9 L82.4,72.1 L80.1,71.4 L75.8,70.7 L74.7,70.1 L74.2,69.2 L74.6,67.9 L73.1,66.8 L73.4,65.6 L74.3,65.0 L74.0,63.4 L72.5,63.4 L71.2,63.0 L68.8,62.7 L67.5,61.9 L65.5,61.2 L65.3,60.2 L68.4,58.9 L72.3,56.7 L75.0,55.4 L76.6,56.1 L78.2,56.2 L78.6,55.2 L77.6,55.1 L77.5,54.2 L81.3,52.7 L85.6,51.6 L87.9,51.5 L89.2,51.9 L88.5,53.4 L88.8,54.5 L88.3,55.3 L89.1,56.6 L90.6,56.4 L92.5,56.6 L94.7,56.3 L95.3,56.8 L96.8,56.9 L98.0,56.4 L99.7,56.9 L101.3,54.8 L102.4,54.7 L103.2,55.2 L103.6,54.0 L101.4,53.4 L99.3,53.9 L99.5,52.3 L97.9,50.6 L96.1,50.1 L95.5,48.6 L96.9,48.2 L98.7,49.7 L98.4,50.9 L99.3,51.9 L101.2,53.0 L101.6,51.8 L99.5,50.3 L100.4,47.6 L99.6,47.1 L97.5,47.7 L95.3,47.5 L95.0,47.1 L93.9,47.5 L89.3,46.4 L89.2,45.2 L87.8,42.5 L86.7,41.5 L84.9,40.7 L81.3,38.4 L79.6,37.5 L78.0,37.3 L75.5,35.8 L73.1,34.9 L73.0,34.6 L74.8,34.1 L75.6,32.6 L75.7,29.7 L80.5,29.9 L86.4,29.2 L88.0,28.7 L90.4,27.2 L92.7,25.0 L93.2,22.8 L94.2,20.8 L96.2,19.2 L97.1,18.0 L99.6,16.1 L100.0,16.6 L102.1,16.8 L105.2,15.8 L107.1,14.7 L111.7,11.5 L113.5,11.3 L113.7,11.8 L115.4,11.4 L117.2,11.5 L120.6,11.1 L124.0,9.7 L127.3,6.8 L128.7,6.2 L128.9,6.7 L134.0,7.9 L134.5,8.7 L132.7,9.8 L131.9,9.9 L131.9,11.3 L134.5,10.9 L134.6,10.1 L135.8,9.4 L136.2,9.8 L137.1,8.1 L139.6,9.6 L139.2,10.8 L140.8,11.1 L141.7,11.8 L143.1,10.7 L145.6,10.6 L146.9,10.2 L150.5,10.6 L152.3,11.0 L151.4,13.3 L154.7,13.8 L155.0,14.4 L158.2,15.4 L158.2,14.9 L160.5,14.3 L162.8,14.4 L162.8,14.9 L164.1,14.9 L165.4,14.2 L167.7,14.1 L169.2,14.4 L171.4,15.2 L172.3,15.0 L173.8,16.1 L174.6,15.7 L175.9,16.0 L176.9,16.7 Z M148.6,133.1 L148.5,133.5 L146.6,132.9 L148.0,130.4 L149.2,130.2 L150.1,128.0 L151.0,130.0 L151.8,129.3 L153.3,130.4 L153.3,131.9 L151.1,132.1 L150.1,132.8 L148.6,133.1 Z M143.0,137.7 L144.5,136.5 L143.1,136.2 L143.1,135.1 L144.3,134.4 L145.1,134.9 L145.2,136.0 L145.7,135.3 L145.7,133.7 L146.8,134.4 L146.9,133.3 L147.8,134.0 L148.9,134.0 L149.8,133.4 L151.1,134.4 L151.1,137.2 L152.9,136.9 L151.8,138.8 L149.6,138.0 L150.4,139.2 L149.8,140.2 L148.7,139.8 L148.7,141.6 L147.1,142.2 L146.5,142.9 L145.5,142.2 L144.4,144.2 L143.6,144.4 L142.7,145.3 L142.3,143.2 L141.1,144.3 L141.0,143.6 L139.9,142.9 L139.8,141.0 L138.7,140.2 L139.3,138.0 L141.5,136.6 L142.9,136.7 L143.0,137.7 Z M139.8,146.6 L138.7,148.6 L138.3,148.3 L139.8,146.6 Z M133.8,153.1 L134.6,153.2 L134.3,155.2 L132.9,154.9 L132.7,154.3 L133.8,153.1 Z M110.4,159.2 L110.1,161.3 L108.4,162.9 L109.2,160.4 L109.8,160.6 L110.4,159.2 Z M106.9,158.5 L108.0,158.5 L107.9,159.5 L106.9,160.7 L106.0,159.9 L105.4,160.6 L105.1,158.9 L105.4,158.3 L106.9,158.5 Z M97.4,162.1 L97.5,162.9 L96.9,163.4 L96.4,162.6 L97.4,162.1 Z M96.5,79.7 L95.7,80.6 L95.5,79.8 L96.5,79.7 Z M94.4,166.8 L95.6,167.1 L95.5,167.9 L94.5,167.9 L94.4,166.8 Z M79.3,168.6 L79.7,169.7 L78.9,170.2 L78.6,169.0 L79.3,168.6 Z M78.3,170.0 L76.6,171.0 L76.2,170.3 L77.0,169.3 L78.3,170.0 Z M74.9,110.9 L76.1,110.5 L76.4,111.2 L77.5,111.0 L78.6,111.6 L78.8,114.4 L78.2,115.2 L76.8,115.8 L76.5,116.7 L74.4,115.7 L73.5,115.7 L71.4,114.4 L70.7,114.4 L69.5,113.6 L69.1,112.3 L69.7,112.0 L71.7,112.3 L72.7,111.3 L73.7,111.2 L74.1,110.5 L74.9,110.9 Z M74.8,171.3 L75.7,172.0 L73.9,173.8 L73.9,174.1 L76.2,172.8 L76.2,173.6 L75.3,174.4 L73.8,175.0 L73.7,175.9 L72.0,176.8 L70.6,176.9 L69.7,177.8 L67.9,178.6 L67.0,177.7 L68.8,176.7 L69.4,176.9 L70.8,176.1 L70.5,175.1 L71.3,174.1 L72.4,174.6 L72.5,174.0 L71.3,173.8 L70.6,173.1 L71.2,171.9 L73.3,171.3 L73.8,172.6 L74.8,171.3 Z M61.5,179.5 L63.6,177.6 L63.8,176.8 L64.6,176.0 L65.8,175.5 L66.5,176.0 L66.7,177.3 L64.4,178.6 L63.1,180.6 L62.1,181.3 L61.5,179.5 Z M56.3,182.0 L56.5,182.9 L55.1,182.9 L55.0,182.3 L56.3,182.0 Z M54.1,140.8 L53.3,141.6 L53.2,140.8 L54.1,140.8 Z M51.2,183.8 L51.6,184.7 L50.6,185.3 L50.4,184.4 L51.2,183.8 Z M45.3,78.9 L49.7,80.3 L52.2,79.1 L53.4,79.2 L54.4,79.9 L54.7,81.0 L56.9,81.7 L57.5,82.2 L60.4,82.5 L62.1,82.9 L61.2,84.3 L59.8,84.0 L58.3,84.3 L57.6,84.9 L56.9,86.3 L55.8,85.0 L54.6,84.1 L53.5,84.0 L52.9,83.0 L50.1,81.8 L48.9,81.7 L46.9,82.8 L45.4,82.2 L44.7,81.1 L45.3,78.9 Z M41.5,186.8 L41.6,187.9 L40.6,188.1 L40.8,187.1 L41.5,186.8 Z M35.0,189.1 L35.7,189.5 L37.8,189.4 L37.8,189.7 L35.4,190.2 L35.0,189.1 Z M31.2,187.8 L31.1,186.9 L31.9,186.5 L33.0,187.4 L32.6,188.3 L32.0,188.3 L32.2,189.3 L31.1,189.4 L28.9,190.4 L27.6,190.1 L28.0,189.4 L29.3,189.5 L31.2,187.8 Z M19.4,191.9 L20.4,191.7 L20.4,192.9 L19.1,192.8 L17.6,194.2 L16.9,192.3 L17.6,192.2 L17.7,190.8 L18.5,190.8 L18.5,191.8 L19.4,191.9 Z M15.6,191.0 L16.2,191.5 L15.8,193.1 L15.0,193.5 L14.9,192.5 L15.6,191.0 Z M10.3,191.2 L11.2,191.3 L12.1,192.4 L11.2,193.8 L10.3,191.2 Z M-39.0,181.0 L-40.0,181.6 L-40.1,182.6 L-48.9,183.2 L-47.4,181.6 L-47.4,180.9 L-39.0,181.0 Z"/>
  </g>
  <g id="hawaii" transform="translate(280, 500) scale(0.9)">
    <path id="state-HI" class="state" data-state="HI" data-name="Hawaii" d="M153.3,105.3 L146.2,103.1 L145.2,100.8 L146.1,94.9 L141.1,85.0 L145.0,81.7 L147.8,77.1 L145.8,74.2 L146.4,71.0 L154.4,74.7 L163.3,77.4 L168.8,81.4 L168.8,84.8 L176.9,90.4 L171.9,94.9 L163.0,97.1 L156.7,100.5 L153.3,105.3 Z M126.1,51.2 L129.3,54.8 L133.6,53.2 L142.8,57.4 L141.4,61.1 L132.0,62.9 L130.1,62.2 L129.7,57.6 L124.8,56.6 L122.9,54.1 L126.1,51.2 Z M114.8,46.5 L112.0,49.2 L105.4,49.2 L107.4,46.2 L114.8,46.5 Z M87.1,33.9 L90.2,40.0 L88.7,43.5 L82.6,44.1 L78.5,36.9 L82.1,36.7 L87.1,33.9 Z M43.8,20.0 L47.0,20.3 L48.6,23.0 L47.7,26.9 L44.4,29.3 L35.3,26.3 L36.4,22.0 L43.8,20.0 Z"/>
</svg>
